# xmcd
#
# Track frame offsets: 
#        150
#        11779
#        23560
#        34187
#        46315
#        60337
#        72451
#        81981
#        93698
#        104351
#        116027
#        128022
#        141092
#        154319
#        167040
#        179642
#        191778
#        203596
#        214291
#        225718
#        240655
#        252464
#        264587
#        277671
#        290077
#
# Disc length: 4027 seconds
#
# Revision: 3
# Processed by: cddbd v1.5.2PL0 Copyright (c) Steve Scherf et al.
# Submitted via: ExactAudioCopy v1.1
#
DISCID=760fb919
DTITLE=Compilations - Essential Texas Blues
DYEAR=2012
DGENRE=Blues
TTITLE0=Clarence 'Gatemouth' Brown - Okie Dokie Stomp
TTITLE1=Freddie King - Hide Away
TTITLE2=Albert Collins - Freeze
TTITLE3=Lightnin' Hopkins - Coffee Blues
TTITLE4=Jimmy Nelson - "T" 99 Blues
TTITLE5=Pee Wee Crayton - Texas Hop
TTITLE6=Ray Sharpe - Linda Lu
TTITLE7=Clarence Garlow - Crawfishin'
TTITLE8=Smokey Hogg - Little School Girl
TTITLE9=Peppermint Harris - Rainin' In My Heart
TTITLE10=Big Mama Thornton - I Smell A Rat
TTITLE11=T-Bone Walker - Mean Old World
TTITLE12=Little Willie Littlefield - It's Midnight (No Place To Go)
TTITLE13=Jimmy McCracklin - Just Got To Know
TTITLE14=Zuzu Bollin - Why Don't You Eat Where You Slept Last Night ?
TTITLE15=Clarence Samuels - Chicken-Hearted Woman
TTITLE16=Texas Alexander - Crossroads
TTITLE17=Frankie Lee Sims - What Will Lucy Do?
TTITLE18=Earl Gilliam - Wrong-Doing Woman
TTITLE19=Garry Goodgion - Blues Party
TTITLE20=Smokey Hogg - Misery Blues
TTITLE21=Lil' Son Jackson - Freedom Train Blues
TTITLE22=Big Maceo - Texas Blues
TTITLE23=Clarence Samuels - Hey Joe
TTITLE24=Lester Williams - Winter Time Blues
EXTD=
EXTT0=
EXTT1=
EXTT2=
EXTT3=
EXTT4=
EXTT5=
EXTT6=
EXTT7=
EXTT8=
EXTT9=
EXTT10=
EXTT11=
EXTT12=
EXTT13=
EXTT14=
EXTT15=
EXTT16=
EXTT17=
EXTT18=
EXTT19=
EXTT20=
EXTT21=
EXTT22=
EXTT23=
EXTT24=
PLAYORDER=
